<?xml version="1.0" encoding="UTF-8" standalone="no"?>
<!-- Generator: Adobe Illustrator 26.0.1, SVG Export Plug-In . SVG Version: 6.00 Build 0)  -->

<svg
   version="1.1"
   x="0px"
   y="0px"
   viewBox="0 0 150.00001 24.999999"
   xml:space="preserve"
   id="svg94"
   sodipodi:docname="telegram.svg"
   inkscape:version="1.2 (dc2aedaf03, 2022-05-15)"
   width="150"
   height="25"
   xmlns:inkscape="http://www.inkscape.org/namespaces/inkscape"
   xmlns:sodipodi="http://sodipodi.sourceforge.net/DTD/sodipodi-0.dtd"
   xmlns="http://www.w3.org/2000/svg"
   xmlns:svg="http://www.w3.org/2000/svg"><defs
   id="defs98"><clipPath
     id="clip0"><rect
       width="71"
       height="55"
       fill="#ffffff"
       id="rect1030"
       x="0"
       y="0" /></clipPath></defs><sodipodi:namedview
   id="namedview96"
   pagecolor="#ffffff"
   bordercolor="#000000"
   borderopacity="0.25"
   inkscape:showpageshadow="2"
   inkscape:pageopacity="0.0"
   inkscape:pagecheckerboard="0"
   inkscape:deskcolor="#000000"
   showgrid="false"
   inkscape:zoom="7.9999999"
   inkscape:cx="65.375001"
   inkscape:cy="15.5625"
   inkscape:window-width="1920"
   inkscape:window-height="999"
   inkscape:window-x="0"
   inkscape:window-y="0"
   inkscape:window-maximized="1"
   inkscape:current-layer="svg94" />
<style
   type="text/css"
   id="style74">
	.st0{display:none;}
	.st1{display:inline;}
	.st2{fill:#2091C0;}
	.st3{fill:#FFFFFF;}
	.st4{font-family:'JetBrainsMono-Medium';}
	.st5{font-size:47.0914px;}
</style>


<g
   inkscape:groupmode="layer"
   id="layer1"
   inkscape:label="background"><rect
     style="fill:#2091c0;fill-opacity:1;stroke-width:0.643274"
     id="rect1506"
     width="148.47887"
     height="22.386663"
     x="0.62099999"
     y="1.4"
     ry="10.739675"
     inkscape:label="color_rounded" /></g><g
   id="Слой_2"
   transform="matrix(0.5,0,0,0.5,-3.1425839,0.11180457)"
   inkscape:label="foreground"
   style="display:inline">
	
<text
   xml:space="preserve"
   style="font-size:32px;font-family:'DejaVu Sans Mono for Powerline';-inkscape-font-specification:'DejaVu Sans Mono for Powerline';fill:#ffffff"
   x="80.52578"
   y="36.408001"
   id="text227"
   inkscape:label="text"><tspan
     sodipodi:role="line"
     id="tspan225"
     x="80.52578"
     y="36.408001"
     style="font-style:normal;font-variant:normal;font-weight:normal;font-stretch:normal;font-size:32px;font-family:Ubuntu;-inkscape-font-specification:Ubuntu">@gmanka</tspan></text><path
   class="st3"
   d="M 11.783797,11.532858 C 18.945021,8.3952082 28.21032,4.5562006 29.502291,4.0394114 32.861422,2.6366971 33.895003,2.9320055 33.378212,5.9958287 33.009075,8.21064 31.938584,15.556433 31.089572,20.096797 c -0.51679,2.694688 -1.624192,3.026909 -3.396042,1.845677 -0.849012,-0.553703 -5.167898,-3.396045 -6.090736,-4.097402 -0.84901,-0.627531 -2.030243,-1.328888 -0.553702,-2.768515 0.516791,-0.516789 3.949749,-3.802093 6.644438,-6.3491272 0.369132,-0.3322216 -0.07383,-0.8859246 -0.47988,-0.6275305 -3.617521,2.3993797 -8.637764,5.7215977 -9.265294,6.1645607 -0.959752,0.664443 -1.882591,0.959751 -3.5437,0.479875 -1.255059,-0.369135 -2.473206,-0.775184 -2.953082,-0.959752 -1.8825901,-0.62753 -1.439628,-1.439627 0.332223,-2.251725 z"
   id="path89"
   style="fill:#ffffff;stroke-width:0.369135"
   inkscape:label="telegram"
   transform="matrix(2,0,0,2,6.2851678,-0.22360914)" /></g></svg>
